<svg xmlns="http://www.w3.org/2000/svg">
  <defs>
    <symbol id="tabler-wifi" viewBox="0 0 24 24" fill="none" stroke="currentColor" stroke-width="2" stroke-linecap="round" stroke-linejoin="round">
      <path d="M12 18l.01 0"/><path d="M9.172 15.172a4 4 0 0 1 5.656 0"/><path d="M6.343 12.343a8 8 0 0 1 11.314 0"/><path d="M3.515 9.515c4.686 -4.687 12.284 -4.687 17 0"/>
    </symbol>
    <symbol id="tabler-bluetooth" viewBox="0 0 24 24" fill="none" stroke="currentColor" stroke-width="2" stroke-linecap="round" stroke-linejoin="round">
      <path d="M7 8l10 8l-5 4l0 -16l5 4l-10 8"/>
    </symbol>
    <symbol id="tabler-volume" viewBox="0 0 24 24" fill="none" stroke="currentColor" stroke-width="2" stroke-linecap="round" stroke-linejoin="round">
      <path d="M15 8a5 5 0 0 1 0 8"/><path d="M17.7 5a9 9 0 0 1 0 14"/><path d="M6 15h-2a1 1 0 0 1 -1 -1v-4a1 1 0 0 1 1 -1h2l3.5 -4.5a.8 .8 0 0 1 1.5 .5v14a.8 .8 0 0 1 -1.5 .5l-3.5 -4.5"/>
    </symbol>
    <symbol id="tabler-settings" viewBox="0 0 24 24" fill="none" stroke="currentColor" stroke-width="2" stroke-linecap="round" stroke-linejoin="round">
      <path d="M10.325 4.317c.426 -1.756 2.924 -1.756 3.35 0a1.724 1.724 0 0 0 2.573 1.066c1.543 -.94 3.31 .826 2.37 2.37a1.724 1.724 0 0 0 1.065 2.572c1.756 .426 1.756 2.924 0 3.35a1.724 1.724 0 0 0 -1.066 2.573c.94 1.543 -.826 3.31 -2.37 2.37a1.724 1.724 0 0 0 -2.572 1.065c-.426 1.756 -2.924 1.756 -3.35 0a1.724 1.724 0 0 0 -2.573 -1.066c-1.543 .94 -3.31 -.826 -2.37 -2.37a1.724 1.724 0 0 0 -1.065 -2.572c-1.756 -.426 -1.756 -2.924 0 -3.35a1.724 1.724 0 0 0 1.066 -2.573c-.94 -1.543 .826 -3.31 2.37 -2.37c1 .608 2.296 .07 2.572 -1.065"/><path d="M9 12a3 3 0 1 0 6 0a3 3 0 0 0 -6 0"/>
    </symbol>
    <symbol id="tabler-chevron-left" viewBox="0 0 24 24" fill="none" stroke="currentColor" stroke-width="2" stroke-linecap="round" stroke-linejoin="round"><path d="M15 6l-6 6l6 6"/></symbol>
    <symbol id="tabler-chevron-right" viewBox="0 0 24 24" fill="none" stroke="currentColor" stroke-width="2" stroke-linecap="round" stroke-linejoin="round"><path d="M9 6l6 6l-6 6"/></symbol>
    <symbol id="tabler-sun" viewBox="0 0 24 24" fill="none" stroke="currentColor" stroke-width="2" stroke-linecap="round" stroke-linejoin="round">
      <path d="M8 12a4 4 0 1 0 8 0a4 4 0 1 0 -8 0"/><path d="M3 12h1m8 -9v1m8 8h1m-9 8v1m-6.4 -15.4l.7 .7m12.1 -.7l-.7 .7m0 11.4l.7 .7m-12.1 -.7l-.7 .7"/>
    </symbol>
    <symbol id="tabler-cloud" viewBox="0 0 24 24" fill="none" stroke="currentColor" stroke-width="2" stroke-linecap="round" stroke-linejoin="round"><path d="M6.657 18c-2.572 0 -4.657 -2.007 -4.657 -4.483c0 -2.475 2.085 -4.482 4.657 -4.482c.393 -1.762 1.794 -3.2 3.675 -3.773c1.88 -.572 3.956 -.193 5.444 1c1.488 1.19 2.162 3.007 1.77 4.769h.99c1.913 0 3.464 1.56 3.464 3.486c0 1.927 -1.551 3.487 -3.465 3.487h-11.878"/></symbol>
    <symbol id="tabler-cloud-rain" viewBox="0 0 24 24" fill="none" stroke="currentColor" stroke-width="2" stroke-linecap="round" stroke-linejoin="round"><path d="M7 18a4.6 4.4 0 0 1 0 -9a5 4.5 0 0 1 11 2h1a3.5 3.5 0 0 1 0 7"/><path d="M11 13v2m0 3v2m4 -5v2m0 3v2"/></symbol>
    <symbol id="tabler-umbrella" viewBox="0 0 24 24" fill="none" stroke="currentColor" stroke-width="2" stroke-linecap="round" stroke-linejoin="round"><path d="M4 12a8 8 0 0 1 16 0l-16 0"/><path d="M12 12v6a2 2 0 0 0 4 0"/></symbol>
    <symbol id="tabler-moon" viewBox="0 0 24 24" fill="none" stroke="currentColor" stroke-width="2" stroke-linecap="round" stroke-linejoin="round"><path d="M12 3c.132 0 .263 0 .393 0a7.5 7.5 0 0 0 7.92 12.446a9 9 0 1 1 -8.313 -12.454l0 .008"/></symbol>
    <symbol id="tabler-alert-triangle" viewBox="0 0 24 24" fill="none" stroke="currentColor" stroke-width="2" stroke-linecap="round" stroke-linejoin="round">
      <path d="M12 9v4"/><path d="M10.363 3.591l-8.106 13.534a1.914 1.914 0 0 0 1.636 2.871h16.214a1.914 1.914 0 0 0 1.636 -2.87l-8.106 -13.536a1.914 1.914 0 0 0 -3.274 0"/><path d="M12 16h.01"/>
    </symbol>
    <symbol id="tabler-shield-check" viewBox="0 0 24 24" fill="none" stroke="currentColor" stroke-width="2" stroke-linecap="round" stroke-linejoin="round">
      <path d="M11.46 20.846a12 12 0 0 1 -7.96 -14.846a12 12 0 0 0 8.5 -3a12 12 0 0 0 8.5 3a12 12 0 0 1 -.09 7.06"/><path d="M15 19l2 2l4 -4"/>
    </symbol>
    <symbol id="tabler-refresh" viewBox="0 0 24 24" fill="none" stroke="currentColor" stroke-width="2" stroke-linecap="round" stroke-linejoin="round"><path d="M20 11a8.1 8.1 0 0 0 -15.5 -2m-.5 -4v4h4"/><path d="M4 13a8.1 8.1 0 0 0 15.5 2m.5 4v-4h-4"/></symbol>
    <symbol id="tabler-radio" viewBox="0 0 24 24" fill="none" stroke="currentColor" stroke-width="2" stroke-linecap="round" stroke-linejoin="round">
      <path d="M14 3l-9.371 3.749a1 1 0 0 0 -.629 .928v11.323a1 1 0 0 0 1 1h14a1 1 0 0 0 1 -1v-11a1 1 0 0 0 -1 -1h-14.5"/><path d="M4 12h16"/><path d="M7 12v-2"/><path d="M17 16v.01"/><path d="M13 16v.01"/>
    </symbol>
    <symbol id="tabler-map-pin" viewBox="0 0 24 24" fill="none" stroke="currentColor" stroke-width="2" stroke-linecap="round" stroke-linejoin="round"><path d="M9 11a3 3 0 1 0 6 0a3 3 0 0 0 -6 0"/><path d="M17.657 16.657l-4.243 4.243a2 2 0 0 1 -2.827 0l-4.244 -4.243a8 8 0 1 1 11.314 0"/></symbol>
    <symbol id="tabler-device-speaker" viewBox="0 0 24 24" fill="none" stroke="currentColor" stroke-width="2" stroke-linecap="round" stroke-linejoin="round"><path d="M5 5a2 2 0 0 1 2 -2h10a2 2 0 0 1 2 2v14a2 2 0 0 1 -2 2h-10a2 2 0 0 1 -2 -2l0 -14"/><path d="M9 14a3 3 0 1 0 6 0a3 3 0 1 0 -6 0"/><path d="M12 7l0 .01"/></symbol>
    <symbol id="tabler-info-circle" viewBox="0 0 24 24" fill="none" stroke="currentColor" stroke-width="2" stroke-linecap="round" stroke-linejoin="round"><path d="M3 12a9 9 0 1 0 18 0a9 9 0 0 0 -18 0"/><path d="M12 9h.01"/><path d="M11 12h1v4h1"/></symbol>
    <symbol id="tabler-x" viewBox="0 0 24 24" fill="none" stroke="currentColor" stroke-width="2" stroke-linecap="round" stroke-linejoin="round"><path d="M18 6l-12 12"/><path d="M6 6l12 12"/></symbol>
    <symbol id="tabler-check" viewBox="0 0 24 24" fill="none" stroke="currentColor" stroke-width="2" stroke-linecap="round" stroke-linejoin="round"><path d="M5 12l5 5l10 -10"/></symbol>
    <symbol id="tabler-menu-2" viewBox="0 0 24 24" fill="none" stroke="currentColor" stroke-width="2" stroke-linecap="round" stroke-linejoin="round"><path d="M4 6l16 0"/><path d="M4 12l16 0"/><path d="M4 18l16 0"/></symbol>
  </defs>
</svg>
